<svg viewBox="0 0 512 512" xmlns="http://www.w3.org/2000/svg" fill="none">
  <!-- Sticker halo -->
  <path
    d="
      M 112 152
      C 112 88, 168 72, 220 72
      L 292 72
      C 344 72, 400 88, 400 152
      L 400 392
      Q 376 444, 340 416
      Q 304 390, 272 416
      Q 240 442, 210 416
      Q 180 390, 148 416
      Q 118 442, 112 396
      Z
    "
    fill="#eaeaea"
    transform="translate(6 8)"
  />

  <!-- Main ghost body -->
  <path
    d="
      M 112 152
      C 112 88, 168 72, 220 72
      L 292 72
      C 344 72, 400 88, 400 152
      L 400 392
      Q 376 444, 340 416
      Q 304 390, 272 416
      Q 240 442, 210 416
      Q 180 390, 148 416
      Q 118 442, 112 396
      Z
    "
    fill="#ffffff"
    stroke="#16161c"
    stroke-width="16"
    stroke-linejoin="round"
  />

  <!-- Left arm stub -->
  <path
    d="
      M 110 260
      C 70 256, 54 292, 64 324
      C 74 348, 104 346, 116 330
      Z
    "
    fill="#ffffff"
    stroke="#16161c"
    stroke-width="16"
    stroke-linejoin="round"
  />

  <!-- Right eye: >  (angle bracket pointing right... wait, the LEFT eye is >) -->
  <!-- Left eye: > shape -->
  <path
    d="M 184 218 L 214 244 L 184 270"
    stroke="#16161c"
    stroke-width="18"
    stroke-linecap="round"
    stroke-linejoin="round"
  />

  <!-- Right eye: < shape -->
  <path
    d="M 328 218 L 298 244 L 328 270"
    stroke="#16161c"
    stroke-width="18"
    stroke-linecap="round"
    stroke-linejoin="round"
  />

  <!-- Tiny mouth (the _ between >_<) -->
  <path
    d="M 240 318 L 272 318"
    stroke="#16161c"
    stroke-width="14"
    stroke-linecap="round"
  />
</svg>
